<svg width="98" height="98" viewBox="0 0 98 98" fill="none" xmlns="http://www.w3.org/2000/svg">
<g filter="url(#filter0_d_18_46)">
<rect x="4" width="90" height="90" rx="5" fill="#060709"/>
<path d="M79 22.5C79 14.37 65.2637 7.5 49 7.5C32.7362 7.5 19 14.37 19 22.5V30C19 38.13 32.7362 45 49 45C65.2637 45 79 38.13 79 30V22.5ZM49 71.25C32.7362 71.25 19 64.38 19 56.25V67.5C19 75.63 32.7362 82.5 49 82.5C65.2637 82.5 79 75.63 79 67.5V56.25C79 64.38 65.2637 71.25 49 71.25Z" fill="#FD7908"/>
<path d="M79 37.5C79 45.63 65.2637 52.5 49 52.5C32.7362 52.5 19 45.63 19 37.5V48.75C19 56.88 32.7362 63.75 49 63.75C65.2637 63.75 79 56.88 79 48.75V37.5Z" fill="#FD7908"/>
</g>
<defs>
<filter id="filter0_d_18_46" x="0" y="0" width="98" height="98" filterUnits="userSpaceOnUse" color-interpolation-filters="sRGB">
<feFlood flood-opacity="0" result="BackgroundImageFix"/>
<feColorMatrix in="SourceAlpha" type="matrix" values="0 0 0 0 0 0 0 0 0 0 0 0 0 0 0 0 0 0 127 0" result="hardAlpha"/>
<feOffset dy="4"/>
<feGaussianBlur stdDeviation="2"/>
<feComposite in2="hardAlpha" operator="out"/>
<feColorMatrix type="matrix" values="0 0 0 0 0 0 0 0 0 0 0 0 0 0 0 0 0 0 0.25 0"/>
<feBlend mode="normal" in2="BackgroundImageFix" result="effect1_dropShadow_18_46"/>
<feBlend mode="normal" in="SourceGraphic" in2="effect1_dropShadow_18_46" result="shape"/>
</filter>
</defs>
</svg>
